<?xml version="1.0" encoding="utf-8"?>
<!-- Generator: Adobe Illustrator 18.1.0, SVG Export Plug-In . SVG Version: 6.00 Build 0)  -->
<svg version="1.1" id="Layer_1" xmlns="http://www.w3.org/2000/svg" xmlns:xlink="http://www.w3.org/1999/xlink" x="0px" y="0px"
	 viewBox="0 0 48 51" enable-background="new 0 0 48 51" xml:space="preserve">
<path fill="#FFFFFF" d="M42.7,5.1h-1.9v3.5c0,1.8-1.4,3.2-3.2,3.2c-1.8,0-3.2-1.4-3.2-3.2V5.1h-7.3v3.5c0,1.8-1.4,3.2-3.2,3.2
	c-1.8,0-3.2-1.4-3.2-3.2V5.1H14v3.5c0,1.8-1.4,3.2-3.2,3.2c-1.8,0-3.2-1.4-3.2-3.2V5.1H5.3C2.4,5.1,0,7.5,0,10.4v35.3
	C0,48.6,2.4,51,5.3,51h37.4c2.9,0,5.3-2.4,5.3-5.3V10.4C48,7.5,45.6,5.1,42.7,5.1z"/>
<path fill="#FFFFFF" d="M12.2,8.4c0,0.8-0.6,1.4-1.4,1.4l0,0c-0.8,0-1.4-0.6-1.4-1.4v-7C9.4,0.6,10,0,10.8,0l0,0
	c0.8,0,1.4,0.6,1.4,1.4V8.4z"/>
<path fill="#FFFFFF" d="M25.4,8.4c0,0.8-0.6,1.4-1.4,1.4l0,0c-0.8,0-1.4-0.6-1.4-1.4v-7C22.6,0.6,23.2,0,24,0l0,0
	c0.8,0,1.4,0.6,1.4,1.4V8.4z"/>
<path fill="#FFFFFF" d="M39,8.4c0,0.8-0.6,1.4-1.4,1.4l0,0c-0.8,0-1.4-0.6-1.4-1.4v-7c0-0.8,0.6-1.4,1.4-1.4l0,0
	C38.4,0,39,0.6,39,1.4V8.4z"/>
</svg>
