<?xml version="1.0" encoding="utf-8"?>
<!-- Generator: Adobe Illustrator 18.1.0, SVG Export Plug-In . SVG Version: 6.00 Build 0)  -->
<svg version="1.1" id="Layer_1" xmlns="http://www.w3.org/2000/svg" xmlns:xlink="http://www.w3.org/1999/xlink" x="0px" y="0px"
	 viewBox="0 0 32 28" enable-background="new 0 0 32 28" xml:space="preserve">
<g id="heart">
	<path fill="#FFFFFF" d="M29.2,2.8C25.6-0.8,19.8-0.9,16,2.5C12.2-0.9,6.4-0.8,2.8,2.8c-3.7,3.7-3.7,9.7,0,13.4
		c1.1,1.1,11.1,10.9,11.1,10.9c1.2,1.2,3.1,1.2,4.3,0c0,0,10.9-10.8,11.1-10.9C32.9,12.5,32.9,6.5,29.2,2.8z M27.8,14.8L16.7,25.7
		c-0.4,0.4-1,0.4-1.4,0L4.2,14.8c-3-2.9-3-7.7,0-10.6C7.1,1.4,11.7,1.3,14.6,4L16,5.2L17.4,4c3-2.7,7.6-2.6,10.4,0.2
		C30.7,7.1,30.7,11.8,27.8,14.8z"/>
	<path fill="#FFFFFF" d="M9.3,5C9.2,5,9.2,5,9.3,5C6.9,5,5,6.9,5,9.2l0,0c0,0.3,0.2,0.5,0.5,0.5S6,9.5,6,9.2v0C6,7.5,7.5,6,9.2,6h0
		c0.3,0,0.5-0.2,0.5-0.5S9.5,5,9.3,5z"/>
</g>
</svg>
