<?xml version="1.0" encoding="utf-8"?>
<!-- Generator: Adobe Illustrator 18.1.0, SVG Export Plug-In . SVG Version: 6.00 Build 0)  -->
<svg version="1.1" id="Layer_1" xmlns="http://www.w3.org/2000/svg" xmlns:xlink="http://www.w3.org/1999/xlink" x="0px" y="0px"
	 viewBox="0 0 32 28" enable-background="new 0 0 32 28" xml:space="preserve">
<path fill="#FFFFFF" d="M29.2,2.8C25.6-0.8,19.8-0.9,16,2.5C12.2-0.9,6.4-0.8,2.8,2.8c-3.7,3.7-3.7,9.7,0,13.4
	c1.1,1.1,11.1,10.9,11.1,10.9c1.2,1.2,3.1,1.2,4.3,0c0,0,10.9-10.8,11.1-10.9C32.9,12.5,32.9,6.5,29.2,2.8z M9.3,6L9.3,6
	C7.5,6,6,7.5,6,9.2v0c0,0.3-0.2,0.5-0.5,0.5S5,9.5,5,9.2C5,6.9,6.9,5,9.2,5c0,0,0,0,0,0c0.3,0,0.5,0.2,0.5,0.5S9.5,6,9.3,6z"/>
</svg>
