<?xml version="1.0" encoding="utf-8"?>
<!-- Generator: Adobe Illustrator 18.1.0, SVG Export Plug-In . SVG Version: 6.00 Build 0)  -->
<svg version="1.1" id="Layer_1" xmlns="http://www.w3.org/2000/svg" xmlns:xlink="http://www.w3.org/1999/xlink" x="0px" y="0px"
	 viewBox="0 0 33 33" enable-background="new 0 0 33 33" xml:space="preserve">
<g>
	<path fill="#FFFFFF" d="M26.3,9.5c-1.5,0-2.8-1.3-2.8-2.8s1.3-2.8,2.8-2.8c1.5,0,2.8,1.3,2.8,2.8S27.9,9.5,26.3,9.5z M26.3,5.3
		c-0.8,0-1.4,0.6-1.4,1.4s0.6,1.4,1.4,1.4c0.8,0,1.4-0.6,1.4-1.4S27.1,5.3,26.3,5.3z"/>
</g>
<g>
	<path fill="#FFFFFF" d="M14.6,33c-0.6,0-1.2-0.2-1.7-0.7L0.7,20.1c-0.5-0.4-0.7-1-0.7-1.7c0-0.6,0.2-1.2,0.7-1.7l16-16
		C17.4,0,18.6,0,19.3,0l0.4,0l10.4,0C31.7,0,33,1.3,33,2.8l0,10.4l0,0.2c0,1,0,2.1-0.8,2.9l-16,16C15.8,32.8,15.2,33,14.6,33z
		 M19.3,2.1c-0.3,0-1,0-1.2,0.2l-16,16c-0.1,0.1-0.1,0.1-0.1,0.2c0,0.1,0,0.1,0.1,0.2l12.2,12.2c0.1,0.1,0.3,0.1,0.4,0l16-16
		c0.2-0.2,0.2-0.8,0.2-1.4l0-0.2l0-10.4c0-0.4-0.3-0.7-0.7-0.7l-10.4,0L19.3,2.1z"/>
</g>
</svg>
