<?xml version="1.0" encoding="utf-8"?>
<!-- Generator: Adobe Illustrator 18.1.0, SVG Export Plug-In . SVG Version: 6.00 Build 0)  -->
<svg version="1.1" id="Layer_1" xmlns="http://www.w3.org/2000/svg" xmlns:xlink="http://www.w3.org/1999/xlink" x="0px" y="0px"
	 viewBox="0 0 33 33" enable-background="new 0 0 33 33" xml:space="preserve">
<path fill="#FFFFFF" d="M33,13.3l0-10.4C33,1.3,31.7,0,30.2,0L19.7,0l-0.4,0c-0.7,0-1.9,0-2.6,0.8l-16,16c-0.5,0.4-0.7,1-0.7,1.7
	c0,0.6,0.2,1.2,0.7,1.7l12.2,12.2c0.4,0.4,1,0.7,1.7,0.7c0.6,0,1.2-0.2,1.7-0.7l16-16c0.8-0.8,0.8-1.9,0.8-2.9L33,13.3z M26.3,8.1
	c-0.8,0-1.4-0.6-1.4-1.4s0.6-1.4,1.4-1.4c0.8,0,1.4,0.6,1.4,1.4S27.1,8.1,26.3,8.1z"/>
</svg>
